<?xml version="1.0" encoding="UTF-8"?>
<svg width="18px" height="19px" viewBox="0 0 18 19" version="1.1" xmlns="http://www.w3.org/2000/svg" xmlns:xlink="http://www.w3.org/1999/xlink">
    <title>Path</title>
    <g id="Page-1" stroke="none" stroke-width="1" fill="none" fill-rule="evenodd">
        <g id="Nav-Bar" transform="translate(-1232.000000, -867.000000)" fill="#FFFFFF" fill-rule="nonzero">
            <g id="Login-Button" transform="translate(1221.000000, 855.000000)">
                <path d="M20.1265182,19.3681931 L20.1265182,23.0068069 C20.1265182,23.0068069 23.6329085,23.0020766 25.0606212,23.0020766 C24.2874875,25.360899 23.0853174,26.6454206 20.1265182,26.6454206 C17.132207,26.6454206 14.7951856,24.2018186 14.7951856,21.1875 C14.7951856,18.1731814 17.132207,15.7295794 20.1265182,15.7295794 C21.7096528,15.7295794 22.732094,16.2897439 23.6699566,17.0704995 C24.4206804,16.3147594 24.3579695,16.2070564 26.267942,14.391297 C24.6465845,12.9056509 22.4916418,12 20.1265182,12 C15.0860596,12 11,16.1133619 11,21.1875 C11,26.261547 15.0860596,30.375 20.1265182,30.375 C27.6605945,30.375 29.5020729,23.7709159 28.8915901,19.3681931 L20.1265182,19.3681931 L20.1265182,19.3681931 Z" id="Path"></path>
            </g>
        </g>
    </g>
</svg>