<?xml version="1.0" encoding="UTF-8"?>
<svg width="24px" height="24px" viewBox="0 0 24 24" version="1.1" xmlns="http://www.w3.org/2000/svg" xmlns:xlink="http://www.w3.org/1999/xlink">
    <title>icon-banner-creator</title>
    <g id="icon-banner-creator" stroke="none" stroke-width="1" fill="none" fill-rule="evenodd">
        <path d="M19,11.9607927 C18.4477153,11.9607927 18,12.4085079 18,12.9607927 L18,15.3507927 L16.5,13.8707927 C15.4048624,12.8193215 13.6751376,12.8193215 12.58,13.8707927 L11.88,14.5707927 L9.39,12.0807927 C8.30567254,11.0027886 6.55432746,11.0027886 5.47,12.0807927 L4,13.5707927 L4,7.9607927 C4,7.40850795 4.44771525,6.9607927 5,6.9607927 L11,6.9607927 C11.5522847,6.9607927 12,6.51307745 12,5.9607927 C12,5.40850795 11.5522847,4.9607927 11,4.9607927 L5,4.9607927 C3.34314575,4.9607927 2,6.30393845 2,7.9607927 L2,19.9607927 C2,21.6176469 3.34314575,22.9607927 5,22.9607927 L17,22.9607927 C18.6568542,22.9607927 20,21.6176469 20,19.9607927 L20,12.9607927 C20,12.4085079 19.5522847,11.9607927 19,11.9607927 Z M5,20.9607927 C4.44771525,20.9607927 4,20.5130774 4,19.9607927 L4,16.4007927 L6.88,13.4807927 C7.02691022,13.3292705 7.22895121,13.2437476 7.44,13.2437476 C7.65104879,13.2437476 7.85308978,13.3292705 8,13.4807927 L11.17,16.6507927 L11.17,16.6507927 L15.43,20.9107927 L5,20.9607927 Z M18,19.9607927 C17.9965315,20.1534101 17.9374988,20.3409256 17.83,20.5007927 L13.29,15.9807927 L13.99,15.2907927 C14.2942525,14.9882357 14.7857475,14.9882357 15.09,15.2907927 L18,18.1807927 L18,19.9607927 Z M21.72,4.7107927 L19.3,2.2907927 C18.9099625,1.9030691 18.2800375,1.9030691 17.89,2.2907927 L13.31,6.8707927 C13.1154643,7.05619197 13.0037358,7.31208642 13,7.5807927 L13,10.0007927 C13,10.5530774 13.4477153,11.0007927 14,11.0007927 L16.42,11.0007927 C16.6823399,10.9996881 16.9337394,10.8955369 17.12,10.7107927 L21.7,6.1307927 C21.8919817,5.94570596 22.0020844,5.69160521 22.00584,5.42495946 C22.0095956,5.1583137 21.9066929,4.90121287 21.72,4.7107927 Z M16,9.0007927 L15,9.0007927 L15,8.0007927 L18.6,4.4107927 L19.6,5.4107927 L16,9.0007927 Z" id="Shape" fill="#D439E9" fill-rule="nonzero"></path>
    </g>
</svg>