<?xml version="1.0" encoding="UTF-8"?>
<svg width="24px" height="24px" viewBox="0 0 24 24" version="1.1" xmlns="http://www.w3.org/2000/svg" xmlns:xlink="http://www.w3.org/1999/xlink">
    <title>icon-slack-integration</title>
    <g id="icon-slack-integration" stroke="none" stroke-width="1" fill="none" fill-rule="evenodd">
        <path d="M2,14.67 C2,15.7745695 2.8954305,16.67 4,16.67 C5.1045695,16.67 6,15.7745695 6,14.67 L6,12.67 L4,12.67 C2.8954305,12.67 2,13.5654305 2,14.67 Z M14.64,11.33 C15.7445695,11.33 16.64,10.4345695 16.64,9.33 L16.64,4 C16.64,2.8954305 15.7445695,2 14.64,2 C13.5354305,2 12.64,2.8954305 12.64,4 L12.64,9.33 C12.64,9.86391646 12.8534302,10.3756789 13.2328397,10.7513319 C13.6122493,11.1269849 14.1261102,11.3353392 14.66,11.33 L14.64,11.33 Z M21.96,9.33 C21.96,8.2254305 21.0645695,7.33 19.96,7.33 C18.8554305,7.33 17.96,8.2254305 17.96,9.33 L17.96,11.33 L19.96,11.33 C20.4973292,11.3407487 21.0163739,11.1347898 21.4001429,10.7585457 C21.7839118,10.3823016 22.0001075,9.86743672 22,9.33 L21.96,9.33 Z M9.34,12.67 C8.2354305,12.67 7.34,13.5654305 7.34,14.67 L7.34,20 C7.34,21.1045695 8.2354305,22 9.34,22 C10.4445695,22 11.34,21.1045695 11.34,20 L11.34,14.67 C11.34,13.5654305 10.4445695,12.67 9.34,12.67 Z M14.66,18 L12.66,18 L12.66,20 C12.66,21.1045695 13.5554305,22 14.66,22 C15.7645695,22 16.66,21.1045695 16.66,20 C16.66,18.8954305 15.7645695,18 14.66,18 Z M20,12.67 L14.66,12.67 C13.5554305,12.67 12.66,13.5654305 12.66,14.67 C12.66,15.7745695 13.5554305,16.67 14.66,16.67 L20,16.67 C21.1045695,16.67 22,15.7745695 22,14.67 C22,13.5654305 21.1045695,12.67 20,12.67 L20,12.67 Z M9.34,7.33 L4,7.33 C2.8954305,7.33 2,8.2254305 2,9.33 C2,10.4345695 2.8954305,11.33 4,11.33 L9.34,11.33 C10.4445695,11.33 11.34,10.4345695 11.34,9.33 C11.34,8.2254305 10.4445695,7.33 9.34,7.33 Z M9.34,2 C8.2354305,2 7.34,2.8954305 7.34,4 C7.34,5.1045695 8.2354305,6 9.34,6 L11.34,6 L11.34,4 C11.34,2.8954305 10.4445695,2 9.34,2 Z" id="Shape" fill="#660294" fill-rule="nonzero"></path>
    </g>
</svg>