<?xml version="1.0" encoding="UTF-8"?>
<svg width="24px" height="24px" viewBox="0 0 24 24" version="1.1" xmlns="http://www.w3.org/2000/svg" xmlns:xlink="http://www.w3.org/1999/xlink">
    <title>icon-mobile-app</title>
    <g id="icon-mobile-app" stroke="none" stroke-width="1" fill="none" fill-rule="evenodd">
        <path d="M12.71,16.29 L12.56,16.17 C12.5042548,16.1321536 12.4437243,16.1018883 12.38,16.08 L12.2,16 C11.8705581,15.9311289 11.5285696,16.032598 11.29,16.27 C11.2016691,16.3672009 11.1306419,16.4788225 11.08,16.6 C10.9252555,16.9725626 11.0095299,17.40162 11.2936967,17.6879727 C11.5778636,17.9743255 12.0062626,18.0618851 12.38,17.91 C12.4994948,17.8520184 12.610519,17.7780023 12.71,17.69 C12.9937446,17.4024393 13.0765967,16.9723971 12.92,16.6 C12.8701426,16.4843663 12.7988939,16.3791896 12.71,16.29 Z M16,2 L8,2 C6.34314575,2 5,3.34314575 5,5 L5,19 C5,20.6568542 6.34314575,22 8,22 L16,22 C17.6568542,22 19,20.6568542 19,19 L19,5 C19,3.34314575 17.6568542,2 16,2 Z M17,19 C17,19.5522847 16.5522847,20 16,20 L8,20 C7.44771525,20 7,19.5522847 7,19 L7,5 C7,4.44771525 7.44771525,4 8,4 L16,4 C16.5522847,4 17,4.44771525 17,5 L17,19 Z" id="Shape" fill="#F1C40F" fill-rule="nonzero"></path>
    </g>
</svg>