<?xml version="1.0" encoding="UTF-8"?>
<svg width="24px" height="24px" viewBox="0 0 24 24" version="1.1" xmlns="http://www.w3.org/2000/svg" xmlns:xlink="http://www.w3.org/1999/xlink">
    <title>icon-campaign-creator</title>
    <g id="icon-campaign-creator" stroke="none" stroke-width="1" fill="none" fill-rule="evenodd">
        <path d="M20,2 C19.7347371,2 19.4802953,2.10515708 19.2927261,2.29272628 C19.1051569,2.48029547 18.9998487,2.73473732 19,3 L19,3.63672017 C17.2919741,5.75445682 14.7206725,6.98988643 12,7 L6,7 C4.34389511,7.00180788 3.00180771,8.34389528 3,10 L3,12 C3.00180771,13.6561051 4.34389511,14.9981925 6,15 L6.48379,15 L4.08106,20.6064002 C3.94842385,20.9152873 3.97997769,21.2701642 4.16503155,21.5508039 C4.35008542,21.8314436 4.66384002,22.0002373 5,22 L9,22 C9.40015678,22.0002385 9.76181186,21.7615725 9.91895,21.3935602 L12.6427,15.0380002 C15.1301227,15.2206302 17.4311719,16.424152 19,18.3630702 L19,19 C19,19.5522849 19.4477153,20 20,20 C20.5522847,20 21,19.5522849 21,19 L21,3 C21,2.7347365 20.8948466,2.48029311 20.7072768,2.29272334 C20.5197071,2.10515357 20.2652637,2 20,2 Z M6,13.0000002 C5.4478684,12.9996306 5.00036956,12.5521318 5,12.0000002 L5,10.0000002 C5.00037507,9.44787085 5.44787068,9.00037523 6,9.00000017 L7,9.00000017 L7,13.0000002 L6,13.0000002 Z M8.34082,20.0000002 L6.5166,20.0000002 L8.65918,15.0000002 L10.4834,15.0000002 L8.34082,20.0000002 Z M19,15.5218002 C17.028258,13.8974207 14.5546693,13.006275 12,12.9999502 L9,12.9999502 L9,8.99995017 L12,8.99995017 C14.5547177,8.99342038 17.0282913,8.10210702 19,6.47761017 L19,15.5218002 Z" id="Shape" fill="#2ECC71" fill-rule="nonzero"></path>
    </g>
</svg>