<?xml version="1.0" encoding="UTF-8"?>
<svg width="24px" height="24px" viewBox="0 0 24 24" version="1.1" xmlns="http://www.w3.org/2000/svg" xmlns:xlink="http://www.w3.org/1999/xlink">
    <title>icon-audit</title>
    <g id="icon-audit" stroke="none" stroke-width="1" fill="none" fill-rule="evenodd">
        <path d="M20.8739792,17 L18.1639792,12.32 C18.718525,11.3015063 19.0074228,10.1596718 19.0039792,9 C19.0039792,5.13400675 15.8699724,2 12.0039792,2 C8.13798592,2 5.00397917,5.13400675 5.00397917,9 C5.00053549,10.1596718 5.28943337,11.3015063 5.84397917,12.32 L3.13397917,17 C2.95498727,17.3100165 2.95536471,17.6920638 3.13496881,18.001726 C3.31457291,18.3113883 3.64600387,18.5014245 4.00397917,18.5 L6.87397917,18.5 L8.33397917,20.96 C8.38319727,21.0415303 8.44380947,21.1156119 8.51397917,21.18 C8.69935667,21.3586807 8.94650962,21.4589747 9.20397917,21.46 L9.34397917,21.46 C9.64991427,21.4181339 9.91934941,21.2372802 10.0739792,20.97 L12.0039792,17.65 L13.9339792,21 C14.0908537,21.2634564 14.3599247,21.4403798 14.6639792,21.4800181 L14.8039792,21.4800181 C15.0649068,21.4815675 15.3161126,21.3810851 15.5039792,21.2 C15.5712359,21.1392799 15.6285941,21.0684257 15.6739792,20.99 L17.1339792,18.53 L20.0039792,18.53 C20.3626639,18.531424 20.6946382,18.3406342 20.8739792,18.03 C21.0643923,17.7130675 21.0643923,17.3169325 20.8739792,17 Z M9.19397917,18.53 L8.30397917,17.04 C8.12574569,16.739347 7.80347405,16.5535669 7.45397917,16.55 L5.72397917,16.55 L7.15397917,14.07 C8.13870436,15.018879 9.37979694,15.6585458 10.7239792,15.91 L9.19397917,18.53 Z M12.0039792,14 C9.24255542,14 7.00397917,11.7614237 7.00397917,9 C7.00397917,6.23857625 9.24255542,4 12.0039792,4 C14.7654029,4 17.0039792,6.23857625 17.0039792,9 C17.0039792,11.7614237 14.7654029,14 12.0039792,14 L12.0039792,14 Z M16.5539792,16.55 C16.2044843,16.5535669 15.8822126,16.739347 15.7039792,17.04 L14.8139792,18.53 L13.2939792,15.88 C14.6334601,15.6233984 15.869946,14.9843158 16.8539792,14.04 L18.2839792,16.52 L16.5539792,16.55 Z" id="Shape" fill="#FCA539" fill-rule="nonzero"></path>
    </g>
</svg>