<?xml version="1.0" encoding="UTF-8"?>
<svg width="24px" height="24px" viewBox="0 0 24 24" version="1.1" xmlns="http://www.w3.org/2000/svg" xmlns:xlink="http://www.w3.org/1999/xlink">
    <title>icon-keyword-planner</title>
    <g id="icon-keyword-planner" stroke="none" stroke-width="1" fill="none" fill-rule="evenodd">
        <path d="M21.00354,4.41409163 L21.71354,3.71409163 C22.1056622,3.32196946 22.1056622,2.6862138 21.71354,2.29409163 C21.3214178,1.90196946 20.6856622,1.90196946 20.29354,2.29409163 L18.89354,3.70409163 L18.89354,3.70409163 L16.06354,6.53409163 L16.06354,6.53409163 L9.75354,12.8340916 C7.61167444,11.420977 4.74779259,11.85863 3.12572653,13.8469415 C1.50366047,15.8352531 1.65004308,18.7286821 3.46449631,20.5431353 C5.27894955,22.3575886 8.17237857,22.5039712 10.1606901,20.8819051 C12.1490016,19.259839 12.5866546,16.3959572 11.17354,14.2540916 L16.76354,8.65409163 L18.88354,10.7840916 C19.1371986,11.0359639 19.505961,11.1333782 19.8509181,11.0396396 C20.1958751,10.9459009 20.4646196,10.6752505 20.5559181,10.3296396 C20.6472165,9.98402866 20.5471986,9.61596387 20.29354,9.36409163 L18.17354,7.24409163 L19.59354,5.83409163 L20.29354,6.53409163 C20.5454122,6.78775021 20.913477,6.88776816 21.2590879,6.79646968 C21.6046988,6.70517121 21.8753493,6.43642672 21.9690879,6.09146967 C22.0628266,5.74651263 21.9654122,5.3777502 21.71354,5.12409163 L21.00354,4.41409163 Z M7.00354,20.0040916 C5.34668575,20.0040916 4.00354,18.6609459 4.00354,17.0040916 C4.00354,15.3472374 5.34668575,14.0040916 7.00354,14.0040916 C8.66039425,14.0040916 10.00354,15.3472374 10.00354,17.0040916 C10.00354,18.6609459 8.66039425,20.0040916 7.00354,20.0040916 Z" id="Shape" fill="#3498DB" fill-rule="nonzero"></path>
    </g>
</svg>