<?xml version="1.0" encoding="UTF-8"?>
<svg width="24px" height="24px" viewBox="0 0 24 24" version="1.1" xmlns="http://www.w3.org/2000/svg" xmlns:xlink="http://www.w3.org/1999/xlink">
    <title>icon-transformation-pack</title>
    <g id="icon-transformation-pack" stroke="none" stroke-width="1" fill="none" fill-rule="evenodd">
        <g id="atom" transform="translate(2.000000, 2.000000)" fill="#E58E26" fill-rule="nonzero">
            <path d="M10,9 C9.44771525,9 9,9.44771525 9,10 C9,10.5522847 9.44771525,11 10,11 C10.5522847,11 11,10.5522847 11,10 C11,9.44771525 10.5522847,9 10,9 Z M17.62,10 L17.73,9.86 C19.08,8 19.4,6.29 18.66,5 C17.92,3.71 16.26,3.14 14,3.37 L13.82,3.37 C12.91,1.3 11.56,0 10,0 C8.44,0 7.09,1.3 6.19,3.4 L6,3.37 C3.74,3.14 2.08,3.71 1.34,5 C0.6,6.29 0.92,8 2.27,9.86 L2.38,10 L2.27,10.14 C0.92,12 0.6,13.71 1.34,15 C2,16.1 3.27,16.68 5,16.68 C5.31,16.68 5.63,16.68 6,16.63 L6.18,16.63 C7.09,18.7 8.44,20 10,20 C11.56,20 12.91,18.7 13.81,16.6 L13.99,16.6 C14.33,16.6 14.65,16.65 14.99,16.65 C16.76,16.65 18.06,16.07 18.69,14.97 C19.43,13.68 19.11,11.97 17.76,10.11 L17.62,10 Z M3.07,6 C3.32,5.56 4.07,5.32 5.07,5.32 L5.56,5.32 C5.40329524,5.93517008 5.28638644,6.55979707 5.21,7.19 C4.70054345,7.57536673 4.21622399,7.99288351 3.76,8.44 C3,7.44 2.78,6.5 3.07,6 Z M3.07,14 C2.78,13.5 3.07,12.56 3.74,11.53 C4.19622399,11.9771165 4.68054345,12.3946333 5.19,12.78 C5.26639951,13.4134979 5.3833056,14.0414506 5.54,14.66 C4.3,14.74 3.36,14.5 3.07,14 Z M10,2 C10.56,2 11.23,2.66 11.8,3.83 C11.1890552,4.00731498 10.5881733,4.21762363 10,4.46 C9.41182668,4.21762363 8.81094481,4.00731498 8.2,3.83 C8.77,2.66 9.44,2 10,2 Z M10,18 C9.44,18 8.77,17.34 8.2,16.17 C8.81094481,15.992685 9.41182668,15.7823764 10,15.54 C10.5881733,15.7823764 11.1890552,15.992685 11.8,16.17 C11.23,17.34 10.56,18 10,18 Z M12.93,11.69 C12.47,12.01 12,12.31 11.5,12.6 C11,12.89 10.5,13.15 10,13.38 C9.5,13.1466667 9,12.8866667 8.5,12.6 C8,12.31 7.5,12.01 7.07,11.69 C7,11.15 7,10.59 7,10 C7,9.41 7,8.85 7.07,8.31 C7.53,7.99 8,7.69 8.5,7.4 C9,7.11 9.5,6.85 10,6.62 C10.5,6.85333333 11,7.11333333 11.5,7.4 C12,7.69 12.5,7.99 12.93,8.31 C12.93,8.85 13,9.41 13,10 C13,10.59 13,11.15 12.93,11.69 L12.93,11.69 Z M16.93,14 C16.64,14.5 15.7,14.75 14.46,14.66 C14.6166944,14.0414506 14.7336005,13.4134979 14.81,12.78 C15.3194565,12.3946333 15.803776,11.9771165 16.26,11.53 C17,12.56 17.22,13.5 16.93,14 Z M16.26,8.47 C15.803776,8.02288351 15.3194565,7.60536673 14.81,7.22 C14.7336136,6.58979707 14.6167048,5.96517008 14.46,5.35 L14.95,5.35 C15.95,5.35 16.68,5.59 16.95,6.03 C17.22,6.47 17,7.44 16.26,8.47 L16.26,8.47 Z" id="Shape"></path>
        </g>
    </g>
</svg>