<?xml version="1.0" encoding="UTF-8"?>
<svg width="11px" height="7px" viewBox="0 0 11 7" version="1.1" xmlns="http://www.w3.org/2000/svg" xmlns:xlink="http://www.w3.org/1999/xlink">
    <title>Path</title>
    <g id="Page-1" stroke="none" stroke-width="1" fill="none" fill-rule="evenodd">
        <g id="Nav-Bar" transform="translate(-745.000000, -2518.000000)" fill="#525252" fill-rule="nonzero">
            <g id="Group-4-Copy" transform="translate(24.000000, 2475.000000)">
                <g id="Group-2" transform="translate(678.000000, 36.000000)">
                    <path d="M53.7457983,7.2907927 C53.3557609,6.9030691 52.7258358,6.9030691 52.3357983,7.2907927 L48.7457983,10.8307927 L45.2057983,7.2907927 C44.8157609,6.9030691 44.1858358,6.9030691 43.7957983,7.2907927 C43.6064857,7.4785593 43.5,7.73415516 43.5,8.0007927 C43.5,8.26743023 43.6064857,8.5230261 43.7957983,8.7107927 L48.0357983,12.9507927 C48.2235649,13.1401053 48.4791608,13.246591 48.7457983,13.246591 C49.0124359,13.246591 49.2680317,13.1401053 49.4557983,12.9507927 L53.7457983,8.7107927 C53.935111,8.5230261 54.0415966,8.26743023 54.0415966,8.0007927 C54.0415966,7.73415516 53.935111,7.4785593 53.7457983,7.2907927 L53.7457983,7.2907927 Z" id="Path"></path>
                </g>
            </g>
        </g>
    </g>
</svg>