<?xml version="1.0" encoding="UTF-8"?>
<svg width="24px" height="24px" viewBox="0 0 24 24" version="1.1" xmlns="http://www.w3.org/2000/svg" xmlns:xlink="http://www.w3.org/1999/xlink">
    <title>icon-promo</title>
    <g id="icon-promo" stroke="none" stroke-width="1" fill="none" fill-rule="evenodd">
        <path d="M9,10 C8.44771525,10 8,10.4477153 8,11 L8,13 C8,13.5522847 8.44771525,14 9,14 C9.55228475,14 10,13.5522847 10,13 L10,11 C10,10.4477153 9.55228475,10 9,10 Z M21,11 C21.5522847,11 22,10.5522847 22,10 L22,6 C22,5.44771525 21.5522847,5 21,5 L3,5 C2.44771525,5 2,5.44771525 2,6 L2,10 C2,10.5522847 2.44771525,11 3,11 C3.55228475,11 4,11.4477153 4,12 C4,12.5522847 3.55228475,13 3,13 C2.44771525,13 2,13.4477153 2,14 L2,18 C2,18.5522847 2.44771525,19 3,19 L21,19 C21.5522847,19 22,18.5522847 22,18 L22,14 C22,13.4477153 21.5522847,13 21,13 C20.4477153,13 20,12.5522847 20,12 C20,11.4477153 20.4477153,11 21,11 Z M20,9.18 C18.8135466,9.6106251 18.0235233,10.7378155 18.0235233,12 C18.0235233,13.2621845 18.8135466,14.3893749 20,14.82 L20,17 L10,17 C10,16.4477153 9.55228475,16 9,16 C8.44771525,16 8,16.4477153 8,17 L4,17 L4,14.82 C5.18645344,14.3893749 5.97647667,13.2621845 5.97647667,12 C5.97647667,10.7378155 5.18645344,9.6106251 4,9.18 L4,7 L8,7 C8,7.55228475 8.44771525,8 9,8 C9.55228475,8 10,7.55228475 10,7 L20,7 L20,9.18 Z" id="Shape" fill="#1ABC9C" fill-rule="nonzero"></path>
    </g>
</svg>